<?xml version="1.0"?>
<svg version="1.1" xmlns="http://www.w3.org/2000/svg" width="400px" height="200px" style="border: dashed 2px #aaa"><path fill="#030303" d="M94.023193359375,93.756103515625q-0.040283203125-0.491455078125,0.064453125-0.85400390625t0.4189453125-0.59619140625t1.007080078125-0.233642578125l2.59423828125,0q0.53173828125,0,1.393798828125,0.056396484375t1.85302734375,0.169189453125t1.973876953125,0.346435546875t1.796630859375,0.580078125t1.3212890625,0.85400390625t0.507568359375,1.200439453125q0,0.98291015625-0.572021484375,1.844970703125t-1.43408203125,1.554931640625t-1.82080078125,1.232666015625t-1.716064453125,0.974853515625q2.9970703125,0.66064453125,4.68896484375,2.7392578125t1.69189453125,5.1884765625q0,1.6435546875-0.62841796875,3.246826171875t-1.716064453125,2.892333984375t-2.578125,2.07861328125t-3.198486328125,0.78955078125q-0.2255859375,0-0.507568359375-0.04833984375t-0.515625-0.153076171875t-0.40283203125-0.298095703125t-0.169189453125-0.49951171875q0-1.41796875,1.53076171875-1.41796875q0.2578125,0,0.604248046875,0.072509765625t0.539794921875,0.298095703125q0.88623046875-0.37060546875,1.619384765625-1.17626953125t1.24072265625-1.796630859375t0.78955078125-2.07861328125t0.281982421875-1.973876953125q0-1.0634765625-0.314208984375-2.167236328125t-0.910400390625-2.04638671875t-1.46630859375-1.587158203125t-1.998046875-0.8056640625q-0.2900390625-0.0322265625-0.636474609375-0.04833984375l-0.69287109375-0.0322265625t-0.6767578125-0.0966796875t-0.572021484375-0.2578125q0.12890625,2.6748046875,0.330322265625,5.33349609375t0.539794921875,5.33349609375q0.12890625,0.12890625,0.17724609375,0.378662109375t0.08056640625,0.53173828125t0.0322265625,0.539794921875l0,0.43505859375q0,0.2900390625-0.193359375,0.475341796875t-0.459228515625,0.298095703125t-0.56396484375,0.14501953125t-0.523681640625,0.0322265625q-0.72509765625,0-1.11181640625-0.193359375t-0.5478515625-0.56396484375t-0.20947265625-0.845947265625t-0.08056640625-1.039306640625q-0.43505859375-4.49560546875-0.62841796875-8.89453125t-0.193359375-8.89453125q0-0.53173828125-0.040283203125-1.023193359375z M96.99609375,93.0712890625q0,1.98193359375,0.12890625,3.971923828125t0.2255859375,3.971923828125q0.72509765625-0.43505859375,1.9013671875-1.023193359375t2.280029296875-1.297119140625t1.893310546875-1.56298828125t0.78955078125-1.85302734375q0-0.78955078125-0.9345703125-1.200439453125t-2.17529296875-0.6123046875t-2.425048828125-0.249755859375t-1.683837890625-0.14501953125z M111.07378417969,110.48974609375q0-1.095703125,0.298095703125-2.11083984375t0.894287109375-1.812744140625t1.490478515625-1.27294921875t2.070556640625-0.475341796875q0.72509765625,0,1.603271484375,0.217529296875t1.651611328125,0.64453125t1.2890625,1.087646484375t0.515625,1.5146484375q0,0.40283203125-0.136962890625,0.6123046875t-0.555908203125,0.20947265625l-0.17724609375-0.0322265625q0.46728515625,1.2568359375,0.8056640625,2.578125t0.66064453125,2.642578125q0.12890625,0.2578125,0.193359375,0.459228515625t0.064453125,0.394775390625q0,0.2578125-0.14501953125,0.427001953125t-0.378662109375,0.249755859375t-0.4833984375,0.11279296875t-0.443115234375,0.0322265625q-0.69287109375,0-1.039306640625-0.24169921875t-0.49951171875-0.66064453125t-0.185302734375-0.942626953125t-0.12890625-1.055419921875q-0.193359375,0.62841796875-0.507568359375,1.224609375t-0.7412109375,1.071533203125t-1.007080078125,0.75732421875t-1.30517578125,0.281982421875q-1.0634765625,0-1.78857421875-0.6123046875t-1.168212890625-1.506591796875t-0.64453125-1.909423828125t-0.201416015625-1.88525390625z M113.36187011719,110.26416015625q0,0.59619140625,0.08056640625,1.2568359375t0.265869140625,1.30517578125t0.475341796875,1.216552734375t0.72509765625,1.007080078125q0.78955078125-0.85400390625,1.168212890625-2.07861328125t0.6767578125-2.360595703125t0.6767578125-1.94970703125t1.168212890625-0.813720703125q0.49951171875,0,0.837890625,0.17724609375q-0.1611328125-0.40283203125-0.53173828125-0.781494140625t-0.829833984375-0.69287109375t-0.95068359375-0.515625t-0.926513671875-0.201416015625q-0.12890625,0-0.298095703125,0.040283203125t-0.265869140625,0.008056640625q-0.66064453125,0.193359375-1.087646484375,0.668701171875t-0.69287109375,1.119873046875t-0.378662109375,1.3212890625t-0.11279296875,1.27294921875z M125.05479492188,110.5703125l0-0.46728515625q0-0.580078125,0.0322265625-1.095703125q0.0322265625-0.72509765625,0.0322265625-1.1923828125q0-0.2578125,0.0322265625-0.588134765625t0.1611328125-0.523681640625q0.1611328125-0.1611328125,0.378662109375-0.330322265625t0.475341796875-0.169189453125q0.82177734375,0,1.2890625,0.185302734375t0.49951171875,0.765380859375l0.064453125,0.49951171875q0.2900390625-0.69287109375,0.7734375-1.716064453125t1.119873046875-1.94970703125t1.43408203125-1.5791015625t1.683837890625-0.652587890625q0.82177734375,0,1.353515625,0.7734375t0.845947265625,1.973876953125t0.443115234375,2.6748046875t0.17724609375,2.892333984375t0.064453125,2.586181640625t0.11279296875,1.764404296875q0.064453125,0.49951171875,0.217529296875,1.055419921875t0.153076171875,1.023193359375q0,0.12890625-0.185302734375,0.249755859375t-0.394775390625,0.201416015625t-0.427001953125,0.12890625t-0.314208984375,0.04833984375q-0.62841796875,0-0.894287109375-0.942626953125t-0.330322265625-2.360595703125t-0.064453125-3.069580078125t-0.11279296875-3.069580078125t-0.459228515625-2.360595703125t-1.103759765625-0.974853515625q-0.69287109375,0-1.43408203125,0.894287109375t-1.27294921875,2.376708984375q-0.515625,1.482421875-0.708984375,3.36767578125q-0.064453125,0.59619140625-0.064453125,1.1923828125q0,1.30517578125,0.27392578125,2.6103515625q0.0322265625,0.2255859375-0.185302734375,0.33837890625t-0.539794921875,0.17724609375t-0.652587890625,0.08056640625t-0.507568359375,0.01611328125q-0.62841796875,0-1.007080078125-0.443115234375t-0.588134765625-1.135986328125t-0.281982421875-1.554931640625t-0.088623046875-1.699951171875z M139.69645019531,109.92578125q0-0.88623046875,0.169189453125-1.893310546875t0.580078125-1.844970703125t1.135986328125-1.3857421875t1.85302734375-0.5478515625q0.75732421875,0,1.46630859375,0.249755859375t1.33740234375,0.684814453125q0.193359375-0.322265625,0.6123046875-0.394775390625t0.7412109375-0.072509765625q0.12890625,0,0.362548828125,0.01611328125t0.459228515625,0.0966796875t0.394775390625,0.193359375t0.201416015625,0.322265625q0.12890625,1.1279296875,0.17724609375,2.247802734375t0.14501953125,2.231689453125q0.1611328125,2.07861328125,0.49951171875,4.10888671875t0.33837890625,4.10888671875q0,0.98291015625-0.088623046875,2.126953125t-0.46728515625,2.118896484375t-1.103759765625,1.619384765625t-2.01416015625,0.64453125q-1.16015625,0-1.780517578125-0.410888671875t-1.119873046875-1.377685546875q0.0322265625-0.322265625,0.410888671875-0.427001953125t0.652587890625-0.104736328125q0.2578125,0,0.523681640625,0.04833984375t0.427001953125,0.1611328125l0.40283203125,0.2578125q0.59619140625-1.224609375,0.72509765625-2.6748046875t0.12890625-2.8037109375q0-1.1279296875-0.11279296875-2.231689453125t-0.2255859375-2.215576171875q-1.1279296875,2.04638671875-3.43212890625,2.04638671875q-1.0634765625,0-1.732177734375-0.451171875t-1.03125-1.14404296875t-0.49951171875-1.56298828125t-0.136962890625-1.740234375z M141.67838378906,110.07080078125q0,0.40283203125,0.0322265625,1.039306640625t0.169189453125,1.248779296875t0.394775390625,1.055419921875t0.72509765625,0.443115234375q0.88623046875,0,1.40185546875-0.69287109375t0.813720703125-1.651611328125t0.475341796875-1.98193359375t0.451171875-1.683837890625q-0.0322265625-0.2255859375-0.0322265625-0.443115234375l0-0.443115234375q-0.37060546875-0.69287109375-1.07958984375-1.200439453125t-1.46630859375-0.684814453125q-0.0966796875-0.01611328125-0.17724609375-0.01611328125q-0.451171875,0-0.7412109375,0.53173828125q-0.37060546875,0.64453125-0.580078125,1.538818359375t-0.298095703125,1.764404296875t-0.088623046875,1.17626953125z M153.46798828125,110.48974609375q0-1.095703125,0.298095703125-2.11083984375t0.894287109375-1.812744140625t1.490478515625-1.27294921875t2.070556640625-0.475341796875q0.72509765625,0,1.603271484375,0.217529296875t1.651611328125,0.64453125t1.2890625,1.087646484375t0.515625,1.5146484375q0,0.40283203125-0.136962890625,0.6123046875t-0.555908203125,0.20947265625l-0.17724609375-0.0322265625q0.46728515625,1.2568359375,0.8056640625,2.578125t0.66064453125,2.642578125q0.12890625,0.2578125,0.193359375,0.459228515625t0.064453125,0.394775390625q0,0.2578125-0.14501953125,0.427001953125t-0.378662109375,0.249755859375t-0.4833984375,0.11279296875t-0.443115234375,0.0322265625q-0.69287109375,0-1.039306640625-0.24169921875t-0.49951171875-0.66064453125t-0.185302734375-0.942626953125t-0.12890625-1.055419921875q-0.193359375,0.62841796875-0.507568359375,1.224609375t-0.7412109375,1.071533203125t-1.007080078125,0.75732421875t-1.30517578125,0.281982421875q-1.0634765625,0-1.78857421875-0.6123046875t-1.168212890625-1.506591796875t-0.64453125-1.909423828125t-0.201416015625-1.88525390625z M155.75607421875,110.26416015625q0,0.59619140625,0.08056640625,1.2568359375t0.265869140625,1.30517578125t0.475341796875,1.216552734375t0.72509765625,1.007080078125q0.78955078125-0.85400390625,1.168212890625-2.07861328125t0.6767578125-2.360595703125t0.6767578125-1.94970703125t1.168212890625-0.813720703125q0.49951171875,0,0.837890625,0.17724609375q-0.1611328125-0.40283203125-0.53173828125-0.781494140625t-0.829833984375-0.69287109375t-0.95068359375-0.515625t-0.926513671875-0.201416015625q-0.12890625,0-0.298095703125,0.040283203125t-0.265869140625,0.008056640625q-0.66064453125,0.193359375-1.087646484375,0.668701171875t-0.69287109375,1.119873046875t-0.378662109375,1.3212890625t-0.11279296875,1.27294921875z M167.43288574219,106.33251953125q0-0.66064453125,0.38671875-1.135986328125t0.942626953125-0.7734375t1.216552734375-0.443115234375t1.224609375-0.14501953125q0.43505859375,0,1.16015625,0.12890625t1.41796875,0.38671875t1.200439453125,0.6767578125t0.507568359375,0.98291015625q0,0.2578125-0.193359375,0.459228515625t-0.40283203125,0.201416015625q-0.43505859375,0-0.78955078125-0.281982421875t-0.733154296875-0.59619140625t-0.829833984375-0.59619140625t-1.01513671875-0.281982421875t-1.023193359375,0.362548828125t-0.459228515625,0.958740234375q0,0.98291015625,0.69287109375,1.925537109375t1.522705078125,1.98193359375t1.522705078125,2.183349609375t0.69287109375,2.52978515625q0,0.59619140625-0.249755859375,1.007080078125t-0.66064453125,0.668701171875t-0.926513671875,0.394775390625t-0.9990234375,0.136962890625q-0.53173828125,0-1.24072265625-0.249755859375t-1.33740234375-0.66064453125t-1.055419921875-0.958740234375t-0.427001953125-1.14404296875q0-0.2900390625,0.410888671875-0.37060546875t0.604248046875-0.08056640625q0.0966796875,0,0.298095703125,0.064453125t0.394775390625,0.14501953125t0.346435546875,0.17724609375t0.120849609375,0.20947265625q0.1611328125,0.193359375,0.491455078125,0.572021484375t0.66064453125,0.6123046875t0.580078125,0.169189453125t0.249755859375-0.72509765625q0-1.2568359375-0.6767578125-2.312255859375t-1.474365234375-2.0625t-1.474365234375-1.998046875t-0.6767578125-2.118896484375z M185.08240722656,110.5703125l0-0.46728515625q0-0.580078125,0.0322265625-1.095703125q0.0322265625-0.72509765625,0.0322265625-1.1923828125q0-0.2578125,0.0322265625-0.588134765625t0.1611328125-0.523681640625q0.1611328125-0.1611328125,0.378662109375-0.330322265625t0.475341796875-0.169189453125q0.82177734375,0,1.2890625,0.185302734375t0.49951171875,0.765380859375l0.064453125,0.49951171875q0.2900390625-0.69287109375,0.7734375-1.716064453125t1.119873046875-1.94970703125t1.43408203125-1.5791015625t1.683837890625-0.652587890625q0.82177734375,0,1.353515625,0.7734375t0.845947265625,1.973876953125t0.443115234375,2.6748046875t0.17724609375,2.892333984375t0.064453125,2.586181640625t0.11279296875,1.764404296875q0.064453125,0.49951171875,0.217529296875,1.055419921875t0.153076171875,1.023193359375q0,0.12890625-0.185302734375,0.249755859375t-0.394775390625,0.201416015625t-0.427001953125,0.12890625t-0.314208984375,0.04833984375q-0.62841796875,0-0.894287109375-0.942626953125t-0.330322265625-2.360595703125t-0.064453125-3.069580078125t-0.11279296875-3.069580078125t-0.459228515625-2.360595703125t-1.103759765625-0.974853515625q-0.69287109375,0-1.43408203125,0.894287109375t-1.27294921875,2.376708984375q-0.515625,1.482421875-0.708984375,3.36767578125q-0.064453125,0.59619140625-0.064453125,1.1923828125q0,1.30517578125,0.27392578125,2.6103515625q0.0322265625,0.2255859375-0.185302734375,0.33837890625t-0.539794921875,0.17724609375t-0.652587890625,0.08056640625t-0.507568359375,0.01611328125q-0.62841796875,0-1.007080078125-0.443115234375t-0.588134765625-1.135986328125t-0.281982421875-1.554931640625t-0.088623046875-1.699951171875z M199.7240625,110.48974609375q0-1.095703125,0.298095703125-2.11083984375t0.894287109375-1.812744140625t1.490478515625-1.27294921875t2.070556640625-0.475341796875q0.72509765625,0,1.603271484375,0.217529296875t1.651611328125,0.64453125t1.2890625,1.087646484375t0.515625,1.5146484375q0,0.40283203125-0.136962890625,0.6123046875t-0.555908203125,0.20947265625l-0.17724609375-0.0322265625q0.46728515625,1.2568359375,0.8056640625,2.578125t0.66064453125,2.642578125q0.12890625,0.2578125,0.193359375,0.459228515625t0.064453125,0.394775390625q0,0.2578125-0.14501953125,0.427001953125t-0.378662109375,0.249755859375t-0.4833984375,0.11279296875t-0.443115234375,0.0322265625q-0.69287109375,0-1.039306640625-0.24169921875t-0.49951171875-0.66064453125t-0.185302734375-0.942626953125t-0.12890625-1.055419921875q-0.193359375,0.62841796875-0.507568359375,1.224609375t-0.7412109375,1.071533203125t-1.007080078125,0.75732421875t-1.30517578125,0.281982421875q-1.0634765625,0-1.78857421875-0.6123046875t-1.168212890625-1.506591796875t-0.64453125-1.909423828125t-0.201416015625-1.88525390625z M202.0121484375,110.26416015625q0,0.59619140625,0.08056640625,1.2568359375t0.265869140625,1.30517578125t0.475341796875,1.216552734375t0.72509765625,1.007080078125q0.78955078125-0.85400390625,1.168212890625-2.07861328125t0.6767578125-2.360595703125t0.6767578125-1.94970703125t1.168212890625-0.813720703125q0.49951171875,0,0.837890625,0.17724609375q-0.1611328125-0.40283203125-0.53173828125-0.781494140625t-0.829833984375-0.69287109375t-0.95068359375-0.515625t-0.926513671875-0.201416015625q-0.12890625,0-0.298095703125,0.040283203125t-0.265869140625,0.008056640625q-0.66064453125,0.193359375-1.087646484375,0.668701171875t-0.69287109375,1.119873046875t-0.378662109375,1.3212890625t-0.11279296875,1.27294921875z M220.00810546875,93.756103515625q-0.040283203125-0.491455078125,0.064453125-0.85400390625t0.4189453125-0.59619140625t1.007080078125-0.233642578125l2.59423828125,0q0.53173828125,0,1.393798828125,0.056396484375t1.85302734375,0.169189453125t1.973876953125,0.346435546875t1.796630859375,0.580078125t1.3212890625,0.85400390625t0.507568359375,1.200439453125q0,0.98291015625-0.572021484375,1.844970703125t-1.43408203125,1.554931640625t-1.82080078125,1.232666015625t-1.716064453125,0.974853515625q2.9970703125,0.66064453125,4.68896484375,2.7392578125t1.69189453125,5.1884765625q0,1.6435546875-0.62841796875,3.246826171875t-1.716064453125,2.892333984375t-2.578125,2.07861328125t-3.198486328125,0.78955078125q-0.2255859375,0-0.507568359375-0.04833984375t-0.515625-0.153076171875t-0.40283203125-0.298095703125t-0.169189453125-0.49951171875q0-1.41796875,1.53076171875-1.41796875q0.2578125,0,0.604248046875,0.072509765625t0.539794921875,0.298095703125q0.88623046875-0.37060546875,1.619384765625-1.17626953125t1.24072265625-1.796630859375t0.78955078125-2.07861328125t0.281982421875-1.973876953125q0-1.0634765625-0.314208984375-2.167236328125t-0.910400390625-2.04638671875t-1.46630859375-1.587158203125t-1.998046875-0.8056640625q-0.2900390625-0.0322265625-0.636474609375-0.04833984375l-0.69287109375-0.0322265625t-0.6767578125-0.0966796875t-0.572021484375-0.2578125q0.12890625,2.6748046875,0.330322265625,5.33349609375t0.539794921875,5.33349609375q0.12890625,0.12890625,0.17724609375,0.378662109375t0.08056640625,0.53173828125t0.0322265625,0.539794921875l0,0.43505859375q0,0.2900390625-0.193359375,0.475341796875t-0.459228515625,0.298095703125t-0.56396484375,0.14501953125t-0.523681640625,0.0322265625q-0.72509765625,0-1.11181640625-0.193359375t-0.5478515625-0.56396484375t-0.20947265625-0.845947265625t-0.08056640625-1.039306640625q-0.43505859375-4.49560546875-0.62841796875-8.89453125t-0.193359375-8.89453125q0-0.53173828125-0.040283203125-1.023193359375z M222.98100585937,93.0712890625q0,1.98193359375,0.12890625,3.971923828125t0.2255859375,3.971923828125q0.72509765625-0.43505859375,1.9013671875-1.023193359375t2.280029296875-1.297119140625t1.893310546875-1.56298828125t0.78955078125-1.85302734375q0-0.78955078125-0.9345703125-1.200439453125t-2.17529296875-0.6123046875t-2.425048828125-0.249755859375t-1.683837890625-0.14501953125z M237.05869628906,105.97802734375q0-0.66064453125,0.233642578125-1.11181640625t0.990966796875-0.451171875q0.2900390625,0,0.72509765625,0.088623046875t0.49951171875,0.443115234375q0.1611328125,0.95068359375,0.17724609375,2.0625t0.11279296875,2.0947265625q0.37060546875-0.72509765625,0.95068359375-1.56298828125t1.3212890625-1.546875t1.611328125-1.17626953125t1.7724609375-0.46728515625q0.064453125,0,0.24169921875,0.04833984375t0.330322265625,0.136962890625t0.185302734375,0.201416015625t-0.17724609375,0.20947265625q-0.064453125,0.193359375-0.27392578125,0.233642578125t-0.37060546875,0.040283203125q-0.0966796875,0-0.30615234375-0.08056640625q-1.1923828125,0.62841796875-2.0302734375,1.7080078125t-1.36962890625,2.392822265625t-0.7734375,2.771484375t-0.24169921875,2.843994140625q0,0.69287109375-0.314208984375,0.837890625t-1.007080078125,0.14501953125q-0.37060546875,0-0.781494140625-0.08056640625t-0.572021484375-0.515625q-0.2900390625-0.91845703125-0.475341796875-2.11083984375t-0.281982421875-2.457275390625t-0.136962890625-2.489501953125t-0.040283203125-2.20751953125z M248.509921875,110.48974609375q0-1.095703125,0.298095703125-2.11083984375t0.894287109375-1.812744140625t1.490478515625-1.27294921875t2.070556640625-0.475341796875q0.72509765625,0,1.603271484375,0.217529296875t1.651611328125,0.64453125t1.2890625,1.087646484375t0.515625,1.5146484375q0,0.40283203125-0.136962890625,0.6123046875t-0.555908203125,0.20947265625l-0.17724609375-0.0322265625q0.46728515625,1.2568359375,0.8056640625,2.578125t0.66064453125,2.642578125q0.12890625,0.2578125,0.193359375,0.459228515625t0.064453125,0.394775390625q0,0.2578125-0.14501953125,0.427001953125t-0.378662109375,0.249755859375t-0.4833984375,0.11279296875t-0.443115234375,0.0322265625q-0.69287109375,0-1.039306640625-0.24169921875t-0.49951171875-0.66064453125t-0.185302734375-0.942626953125t-0.12890625-1.055419921875q-0.193359375,0.62841796875-0.507568359375,1.224609375t-0.7412109375,1.071533203125t-1.007080078125,0.75732421875t-1.30517578125,0.281982421875q-1.0634765625,0-1.78857421875-0.6123046875t-1.168212890625-1.506591796875t-0.64453125-1.909423828125t-0.201416015625-1.88525390625z M250.7980078125,110.26416015625q0,0.59619140625,0.08056640625,1.2568359375t0.265869140625,1.30517578125t0.475341796875,1.216552734375t0.72509765625,1.007080078125q0.78955078125-0.85400390625,1.168212890625-2.07861328125t0.6767578125-2.360595703125t0.6767578125-1.94970703125t1.168212890625-0.813720703125q0.49951171875,0,0.837890625,0.17724609375q-0.1611328125-0.40283203125-0.53173828125-0.781494140625t-0.829833984375-0.69287109375t-0.95068359375-0.515625t-0.926513671875-0.201416015625q-0.12890625,0-0.298095703125,0.040283203125t-0.265869140625,0.008056640625q-0.66064453125,0.193359375-1.087646484375,0.668701171875t-0.69287109375,1.119873046875t-0.378662109375,1.3212890625t-0.11279296875,1.27294921875z M262.47481933594,105.54296875q0-0.322265625,0.4189453125-0.410888671875t0.64453125-0.088623046875q1.41796875,0,2.78759765625-0.24169921875t2.75537109375-0.24169921875q0.12890625,0,0.427001953125,0.01611328125t0.56396484375,0.064453125t0.475341796875,0.1611328125t0.20947265625,0.33837890625q0,0.40283203125-0.193359375,1.16015625t-0.523681640625,1.699951171875t-0.72509765625,1.998046875t-0.78955078125,2.01416015625t-0.7412109375,1.732177734375t-0.555908203125,1.20849609375q0.53173828125,0.0966796875,1.30517578125,0.1611328125t1.46630859375,0.12890625t1.16015625,0.217529296875t0.43505859375,0.378662109375q-0.064453125,0.37060546875-0.66064453125,0.580078125q-0.580078125,0.20947265625-1.4501953125,0.2900390625q-0.53173828125,0.04833984375-1.1279296875,0.04833984375q-0.3544921875,0-0.708984375-0.01611328125q-0.966796875-0.04833984375-1.812744140625-0.1611328125t-1.409912109375-0.314208984375t-0.56396484375-0.427001953125q0-0.0966796875,0.281982421875-0.78955078125t0.69287109375-1.683837890625t0.910400390625-2.1591796875t0.958740234375-2.247802734375t0.8056640625-1.91748046875t0.475341796875-1.16015625q-0.95068359375,0.064453125-1.925537109375,0.1611328125t-1.925537109375,0.0966796875q-0.12890625,0-0.410888671875-0.01611328125t-0.5478515625-0.08056640625t-0.4833984375-0.185302734375t-0.217529296875-0.314208984375z M274.92506835937,105.54296875q0-0.322265625,0.4189453125-0.410888671875t0.64453125-0.088623046875q1.41796875,0,2.78759765625-0.24169921875t2.75537109375-0.24169921875q0.12890625,0,0.427001953125,0.01611328125t0.56396484375,0.064453125t0.475341796875,0.1611328125t0.20947265625,0.33837890625q0,0.40283203125-0.193359375,1.16015625t-0.523681640625,1.699951171875t-0.72509765625,1.998046875t-0.78955078125,2.01416015625t-0.7412109375,1.732177734375t-0.555908203125,1.20849609375q0.53173828125,0.0966796875,1.30517578125,0.1611328125t1.46630859375,0.12890625t1.16015625,0.217529296875t0.43505859375,0.378662109375q-0.064453125,0.37060546875-0.66064453125,0.580078125q-0.580078125,0.20947265625-1.4501953125,0.2900390625q-0.53173828125,0.04833984375-1.1279296875,0.04833984375q-0.3544921875,0-0.708984375-0.01611328125q-0.966796875-0.04833984375-1.812744140625-0.1611328125t-1.409912109375-0.314208984375t-0.56396484375-0.427001953125q0-0.0966796875,0.281982421875-0.78955078125t0.69287109375-1.683837890625t0.910400390625-2.1591796875t0.958740234375-2.247802734375t0.8056640625-1.91748046875t0.475341796875-1.16015625q-0.95068359375,0.064453125-1.925537109375,0.1611328125t-1.925537109375,0.0966796875q-0.12890625,0-0.410888671875-0.01611328125t-0.5478515625-0.08056640625t-0.4833984375-0.185302734375t-0.217529296875-0.314208984375z M287.37531738281,110.48974609375q0-1.095703125,0.298095703125-2.11083984375t0.894287109375-1.812744140625t1.490478515625-1.27294921875t2.070556640625-0.475341796875q0.72509765625,0,1.603271484375,0.217529296875t1.651611328125,0.64453125t1.2890625,1.087646484375t0.515625,1.5146484375q0,0.40283203125-0.136962890625,0.6123046875t-0.555908203125,0.20947265625l-0.17724609375-0.0322265625q0.46728515625,1.2568359375,0.8056640625,2.578125t0.66064453125,2.642578125q0.12890625,0.2578125,0.193359375,0.459228515625t0.064453125,0.394775390625q0,0.2578125-0.14501953125,0.427001953125t-0.378662109375,0.249755859375t-0.4833984375,0.11279296875t-0.443115234375,0.0322265625q-0.69287109375,0-1.039306640625-0.24169921875t-0.49951171875-0.66064453125t-0.185302734375-0.942626953125t-0.12890625-1.055419921875q-0.193359375,0.62841796875-0.507568359375,1.224609375t-0.7412109375,1.071533203125t-1.007080078125,0.75732421875t-1.30517578125,0.281982421875q-1.0634765625,0-1.78857421875-0.6123046875t-1.168212890625-1.506591796875t-0.64453125-1.909423828125t-0.201416015625-1.88525390625z M289.66340332031,110.26416015625q0,0.59619140625,0.08056640625,1.2568359375t0.265869140625,1.30517578125t0.475341796875,1.216552734375t0.72509765625,1.007080078125q0.78955078125-0.85400390625,1.168212890625-2.07861328125t0.6767578125-2.360595703125t0.6767578125-1.94970703125t1.168212890625-0.813720703125q0.49951171875,0,0.837890625,0.17724609375q-0.1611328125-0.40283203125-0.53173828125-0.781494140625t-0.829833984375-0.69287109375t-0.95068359375-0.515625t-0.926513671875-0.201416015625q-0.12890625,0-0.298095703125,0.040283203125t-0.265869140625,0.008056640625q-0.66064453125,0.193359375-1.087646484375,0.668701171875t-0.69287109375,1.119873046875t-0.378662109375,1.3212890625t-0.11279296875,1.27294921875z"/><path fill="#" d=""/></svg>
